<svg xmlns="http://www.w3.org/2000/svg" width="1em" height="1em" fill="none" viewBox="0 0 16 16" aria-hidden="true" focusable="false" class=""><path fill="currentColor" fill-rule="evenodd" d="M8.646.368a.75.75 0 0 0-1.292 0l-3.25 5.5A.75.75 0 0 0 4.75 7h6.5a.75.75 0 0 0 .646-1.132l-3.25-5.5ZM8 2.224 9.936 5.5H6.064L8 2.224ZM8.5 9.25a.75.75 0 0 1 .75-.75h5a.75.75 0 0 1 .75.75v5a.75.75 0 0 1-.75.75h-5a.75.75 0 0 1-.75-.75v-5ZM10 10v3.5h3.5V10H10ZM1 11.75a3.25 3.25 0 1 1 6.5 0 3.25 3.25 0 0 1-6.5 0ZM4.25 10a1.75 1.75 0 1 0 0 3.5 1.75 1.75 0 0 0 0-3.5Z" clip-rule="evenodd"></path></svg>