<svg aria-hidden="true" width="16" viewBox="0 0 24 26" fill="none" xmlns="http://www.w3.org/2000/svg" data-testid="DatabricksGlyph" class="css-acbihw"><path d="M22.72 10.562l-10.721 5.956L.543 10.152l-.543.3v4.627l11.998 6.672 10.722-5.959v2.458l-10.721 5.962-11.453-6.37-.546.3v.786L11.998 25.6 24 18.928v-4.631l-.543-.3-11.459 6.366L1.28 14.407V11.96L12 17.91 24 11.24V6.672l-.603-.331-11.398 6.338-10.15-5.647 10.15-5.644 8.364 4.65.744-.413v-.559L12 0 0 6.675v.716l11.998 6.672L22.72 8.104v2.458z"></path></svg>