<svg xmlns="http://www.w3.org/2000/svg" width="1em" height="1em" fill="none" viewBox="0 0 16 16" aria-hidden="true" focusable="false" class=""><path fill="currentColor" d="M13.5 2.5H7V1h7.25a.75.75 0 0 1 .75.75V9h-1.5V2.5Z"></path><path fill="currentColor" fill-rule="evenodd" d="M1 7.75A.75.75 0 0 1 1.75 7h6.5a.75.75 0 0 1 .75.75v6.5a.75.75 0 0 1-.75.75h-6.5a.75.75 0 0 1-.75-.75v-6.5Zm1.5.75v5h5v-5h-5Z" clip-rule="evenodd"></path><path fill="currentColor" d="M4 5.32h6.5V12H12V4.57a.75.75 0 0 0-.75-.75H4v1.5Z"></path></svg>