<svg xmlns="http://www.w3.org/2000/svg" width="1em" height="1em" fill="none" viewBox="0 0 16 16" aria-hidden="true" focusable="false" class=""><path fill="currentColor" d="M3.394 5.586a4.752 4.752 0 0 1 9.351.946A3.754 3.754 0 0 1 15.787 9H14.12a2.248 2.248 0 0 0-1.871-1H12a.75.75 0 0 1-.75-.75v-.5a3.25 3.25 0 0 0-6.476-.402.75.75 0 0 1-.697.657A2.75 2.75 0 0 0 4 12.49V14a.75.75 0 0 1-.179-.021 4.25 4.25 0 0 1-.427-8.393Z"></path><path fill="currentColor" fill-rule="evenodd" d="M8 7a2.25 2.25 0 0 1 2.03 3.22l.5.5a2.25 2.25 0 1 1-1.06 1.06l-.5-.5A2.25 2.25 0 1 1 8 7Zm.75 2.25a.75.75 0 1 0-1.5 0 .75.75 0 0 0 1.5 0Zm3.5 3.5a.75.75 0 1 0-1.5 0 .75.75 0 0 0 1.5 0Z" clip-rule="evenodd"></path></svg>